<?xml version="1.0" encoding="UTF-8" standalone="no"?>
<!-- Svg Vector Icons : http://www.onlinewebfonts.com/icon -->

<svg
   enable-background="new 0 0 1000 1000"
   version="1.1"
   viewBox="0 0 64 64"
   xml:space="preserve"
   id="svg139"
   sodipodi:docname="download-icon.svg"
   width="64"
   height="64"
   inkscape:version="1.2.2 (b0a8486541, 2022-12-01)"
   xmlns:inkscape="http://www.inkscape.org/namespaces/inkscape"
   xmlns:sodipodi="http://sodipodi.sourceforge.net/DTD/sodipodi-0.dtd"
   xmlns="http://www.w3.org/2000/svg"
   xmlns:svg="http://www.w3.org/2000/svg"><defs
   id="defs143" /><sodipodi:namedview
   id="namedview141"
   pagecolor="#ffffff"
   bordercolor="#666666"
   borderopacity="1.0"
   inkscape:showpageshadow="2"
   inkscape:pageopacity="0.0"
   inkscape:pagecheckerboard="0"
   inkscape:deskcolor="#d1d1d1"
   showgrid="false"
   inkscape:zoom="1"
   inkscape:cx="32.5"
   inkscape:cy="32"
   inkscape:window-width="2560"
   inkscape:window-height="1371"
   inkscape:window-x="0"
   inkscape:window-y="0"
   inkscape:window-maximized="1"
   inkscape:current-layer="svg139" />
<metadata
   id="metadata135"> Svg Vector Icons : http://www.onlinewebfonts.com/icon </metadata>
<path
   d="m 49.227755,54.151836 c 0,-0.666123 -0.241633,-1.240816 -0.731428,-1.730612 -0.489796,-0.489796 -1.06449,-0.731429 -1.730613,-0.731429 -0.666122,0 -1.240816,0.241633 -1.730612,0.731429 -0.489796,0.489796 -0.731429,1.064489 -0.731429,1.730612 0,0.666124 0.241633,1.240814 0.731429,1.730614 0.489796,0.48979 1.06449,0.73143 1.730612,0.73143 0.666123,0 1.240817,-0.24164 1.730613,-0.73143 0.489795,-0.48327 0.731428,-1.06449 0.731428,-1.730614 z m 9.848163,0 c 0,-0.666123 -0.241632,-1.240816 -0.731428,-1.730612 -0.489796,-0.489796 -1.06449,-0.731429 -1.730612,-0.731429 -0.666123,0 -1.240817,0.241633 -1.730613,0.731429 -0.489796,0.489796 -0.731428,1.064489 -0.731428,1.730612 0,0.666124 0.241632,1.240814 0.731428,1.730614 0.489796,0.48979 1.06449,0.73143 1.730613,0.73143 0.666122,0 1.240816,-0.24164 1.730612,-0.73143 0.489796,-0.48327 0.731428,-1.06449 0.731428,-1.730614 z M 64,45.537958 V 57.84816 c 0,1.02531 -0.359184,1.90041 -1.077551,2.61225 -0.718367,0.71183 -1.586939,1.07755 -2.612245,1.07755 H 3.689796 c -1.025306,0 -1.900408,-0.35919 -2.612245,-1.07755 C 0.359184,59.74204 0,58.87347 0,57.84816 V 45.537958 C 0,44.512652 0.359184,43.63755 1.077551,42.925713 1.795918,42.207346 2.66449,41.848162 3.689796,41.848162 h 17.887347 l 5.191837,5.231021 c 1.488979,1.436735 3.232653,2.155102 5.23102,2.155102 1.998367,0 3.742041,-0.718367 5.23102,-2.155102 l 5.231021,-5.231021 h 17.848163 c 1.025306,0 1.900408,0.359184 2.612245,1.077551 C 63.634286,43.644081 64,44.512652 64,45.537958 Z M 51.500408,23.653877 c 0.437551,1.051428 0.254694,1.946122 -0.53551,2.690612 L 33.730612,43.578775 C 33.266939,44.068571 32.692245,44.310203 32,44.310203 c -0.692245,0 -1.266939,-0.241632 -1.730612,-0.731428 L 13.041633,26.344489 c -0.796735,-0.74449 -0.973062,-1.639184 -0.535511,-2.690612 0.437551,-0.999184 1.195102,-1.502041 2.266123,-1.502041 h 9.848163 V 4.924081 c 0,-0.666123 0.241633,-1.240817 0.731429,-1.730612 0.489796,-0.489796 1.06449,-0.731429 1.730612,-0.731429 h 9.848163 c 0.666123,0 1.240817,0.241633 1.730612,0.731429 0.489796,0.489795 0.731429,1.064489 0.731429,1.730612 v 17.227755 h 9.848163 c 1.06449,0 1.822041,0.502857 2.259592,1.502041 z"
   id="path137"
   style="stroke-width:0.0653061" />
</svg>
