<?xml version="1.0" encoding="UTF-8" standalone="no"?>
<!-- Generator: Adobe Illustrator 16.0.0, SVG Export Plug-In . SVG Version: 6.00 Build 0)  -->

<svg
   version="1.1"
   id="Capa_1"
   x="0px"
   y="0px"
   width="16"
   height="16"
   viewBox="0 0 16 16"
   xml:space="preserve"
   sodipodi:docname="edit-icon.svg"
   inkscape:version="1.1.2 (0a00cf5339, 2022-02-04)"
   xmlns:inkscape="http://www.inkscape.org/namespaces/inkscape"
   xmlns:sodipodi="http://sodipodi.sourceforge.net/DTD/sodipodi-0.dtd"
   xmlns="http://www.w3.org/2000/svg"
   xmlns:svg="http://www.w3.org/2000/svg"
   xmlns:rdf="http://www.w3.org/1999/02/22-rdf-syntax-ns#"
   xmlns:cc="http://creativecommons.org/ns#"
   xmlns:dc="http://purl.org/dc/elements/1.1/"><sodipodi:namedview
     id="namedview21"
     pagecolor="#ffffff"
     bordercolor="#666666"
     borderopacity="1.0"
     inkscape:pageshadow="2"
     inkscape:pageopacity="0.0"
     inkscape:pagecheckerboard="0"
     showgrid="false"
     inkscape:zoom="53.1875"
     inkscape:cx="8"
     inkscape:cy="8"
     inkscape:window-width="1458"
     inkscape:window-height="1088"
     inkscape:window-x="692"
     inkscape:window-y="160"
     inkscape:window-maximized="0"
     inkscape:current-layer="Capa_1" /><metadata
     id="metadata41"><rdf:RDF><cc:Work
         rdf:about=""><dc:format>image/svg+xml</dc:format><dc:type
           rdf:resource="http://purl.org/dc/dcmitype/StillImage" /></cc:Work></rdf:RDF></metadata><defs
     id="defs39" /><path
     id="path5"
     d="m 15.659947,3.9234827 -1.286125,1.2863 -3.583588,-3.583239 1.286649,-1.28643108 c 0.405355,-0.405355 1.01439,-0.455479 1.358366,-0.111896 l 2.336637,2.33703008 c 0.343453,0.343453 0.293416,0.952881 -0.111939,1.358236 z m -5.466927,-1.700031 3.583588,3.583589 -8.5452169,8.5450863 c -0.03918,0.03917 -0.148017,0.148016 -0.300658,0.186929 -0.01767,0.0085 -0.03573,0.01575 -0.05361,0.02142 l -4.45969006,1.421272 c -0.124808,0.03944 -0.250228,0.01392 -0.331586,-0.06757 -0.08162,-0.08149 -0.106879,-0.206779 -0.06784,-0.331631 L 1.4392801,11.123249 c 0.0061,-0.01828 0.01331,-0.03608 0.02142,-0.0534 0.03909,-0.152903 0.147624,-0.26144 0.187235,-0.300876 l 1.605889,-1.6058903 c 5.099038,-5.072891 2.833113,-2.833228 6.9391969,-6.939633 z M 4.1290971,14.076772 1.9230711,11.871094 1.3313101,13.728651 0.92871204,15.091112 2.2715841,14.669056 Z"
     style="stroke-width:0.0436241" /><g
     id="g7"
     transform="translate(-73.290331,-58.825458)" /><g
     id="g9"
     transform="translate(-73.290331,-58.825458)" /><g
     id="g11"
     transform="translate(-73.290331,-58.825458)" /><g
     id="g13"
     transform="translate(-73.290331,-58.825458)" /><g
     id="g15"
     transform="translate(-73.290331,-58.825458)" /><g
     id="g17"
     transform="translate(-73.290331,-58.825458)" /><g
     id="g19"
     transform="translate(-73.290331,-58.825458)" /><g
     id="g21"
     transform="translate(-73.290331,-58.825458)" /><g
     id="g23"
     transform="translate(-73.290331,-58.825458)" /><g
     id="g25"
     transform="translate(-73.290331,-58.825458)" /><g
     id="g27"
     transform="translate(-73.290331,-58.825458)" /><g
     id="g29"
     transform="translate(-73.290331,-58.825458)" /><g
     id="g31"
     transform="translate(-73.290331,-58.825458)" /><g
     id="g33"
     transform="translate(-73.290331,-58.825458)" /><g
     id="g35"
     transform="translate(-73.290331,-58.825458)" /></svg>
