<?xml version="1.0" encoding="UTF-8" standalone="no"?>
<!-- Created with Inkscape (http://www.inkscape.org/) -->

<svg
   xmlns:dc="http://purl.org/dc/elements/1.1/"
   xmlns:cc="http://creativecommons.org/ns#"
   xmlns:rdf="http://www.w3.org/1999/02/22-rdf-syntax-ns#"
   xmlns:svg="http://www.w3.org/2000/svg"
   xmlns="http://www.w3.org/2000/svg"
   xmlns:sodipodi="http://sodipodi.sourceforge.net/DTD/sodipodi-0.dtd"
   xmlns:inkscape="http://www.inkscape.org/namespaces/inkscape"
   id="svg2"
   sodipodi:docname="8.svg"
   inkscape:export-filename="D:\Android\images\reindeer\pexeso\card_pig.png"
   viewBox="0 0 117.55881 136.75125"
   sodipodi:version="0.32"
   inkscape:export-xdpi="82.258698"
   version="1.0"
   inkscape:export-ydpi="82.258698"
   y="0"
   x="0"
   inkscape:version="0.92.4 (unknown)"
   width="117.55881"
   height="136.75125">
  <defs
     id="defs38" />
  <sodipodi:namedview
     id="base"
     bordercolor="#666666"
     inkscape:pageshadow="2"
     inkscape:window-y="27"
     pagecolor="#ffffff"
     inkscape:window-height="1376"
     inkscape:window-maximized="1"
     inkscape:zoom="1.9105263"
     inkscape:window-x="0"
     showgrid="false"
     borderopacity="1.0"
     inkscape:current-layer="g5630"
     inkscape:cx="-64.694064"
     inkscape:cy="63.888226"
     inkscape:window-width="2560"
     inkscape:pageopacity="0.0"
     fit-margin-top="0"
     fit-margin-left="0"
     fit-margin-right="0"
     fit-margin-bottom="0" />
  <g
     id="layer1"
     inkscape:label="Layer 1"
     inkscape:groupmode="layer"
     transform="translate(-9.6943346,-29.446063)">
    <g
       id="g1344">
      <g
         id="g5630">
        <g
           id="layer1-1"
           transform="matrix(0.38742,0,0,0.38742,-59.617,-80.29)">
          <path
             id="path2383"
             style="fill:#ff8080;stroke:#000000;stroke-width:4.84000015;stroke-linecap:round;stroke-linejoin:round"
             inkscape:connector-curvature="0"
             d="m 479.92,463.08 a 149.3,149.3 0 0 1 -298.59,0 149.3,149.3 0 1 1 298.59,0 z" />
          <path
             id="path3306"
             style="fill:#000000;fill-opacity:0.31373004"
             inkscape:connector-curvature="0"
             d="m 274.78,324.61 c -17.377,7.021 -33.132,17.218 -46.547,29.872 3.9229,6.677 9.0137,12.812 15.465,17.432 -14.88,19.479 -23.708,43.793 -23.708,70.18 -1e-5,63.911 51.87,115.78 115.78,115.78 63.911,2e-5 115.78,-51.87 115.78,-115.78 -1e-5,-26.136 -8.705,-50.228 -23.33,-69.613 4.5049,-3.0819 8.3346,-6.8891 11.608,-11.117 -12.784,-13.72 -28.095,-25.054 -45.224,-33.199 -0.36802,0.43641 -0.71334,0.87846 -1.0588,1.3234 -2.6099,3.3623 -4.2998,6.4867 -5.2559,9.4153 -15.772,-8.0527 -33.608,-12.592 -52.522,-12.592 -18.495,2e-5 -35.987,4.3396 -51.501,12.062 -0.98382,-2.7746 -2.616,-5.7285 -5.0669,-8.886 -1.3116,-1.6898 -2.811,-3.3159 -4.4241,-4.8778 z" />
          <path
             id="path2385"
             style="fill:#ffaaaa;stroke:#000000;stroke-width:4.84000015;stroke-linecap:round;stroke-linejoin:round"
             inkscape:connector-curvature="0"
             d="m 219.61,285.72 c -3.1033,0.0689 -5.3964,0.71072 -6.5416,2.004 -4.2197,4.7659 -0.71397,48.321 25.486,67.079 -14.88,19.479 -23.708,43.793 -23.708,70.18 0,63.911 51.87,115.78 115.78,115.78 63.911,0 115.78,-51.87 115.78,-115.78 0,-26.136 -8.705,-50.228 -23.33,-69.613 26.94,-18.43 30.581,-62.832 26.318,-67.647 -6.1074,-6.8978 -45.392,4.5578 -60.992,24.654 -2.6099,3.3623 -4.2998,6.4867 -5.2559,9.4153 -15.772,-8.0527 -33.608,-12.592 -52.522,-12.592 -18.495,0 -35.987,4.3396 -51.501,12.062 -0.98381,-2.7746 -2.616,-5.7285 -5.0669,-8.886 -12.674,-16.328 -41.002,-26.956 -54.45,-26.658 z" />
          <path
             id="path3293"
             style="fill:#000000;fill-opacity:0.31373004"
             inkscape:connector-curvature="0"
             d="m 437.34,380.12 c 1.4555,7.3145 2.2309,14.869 2.2309,22.612 -2e-5,63.911 -51.87,115.78 -115.78,115.78 -47.934,0 -89.085,-29.158 -106.67,-70.709 10.613,52.986 57.419,92.981 113.51,92.981 63.911,-3e-5 115.78,-51.87 115.78,-115.78 0,-15.916 -3.2474,-31.085 -9.075,-44.883 z" />
          <path
             id="path2387"
             style="fill:#ffffff;stroke:#000000;stroke-width:4.84000015;stroke-linecap:round;stroke-linejoin:round"
             inkscape:connector-curvature="0"
             d="m 324.53,408.61 a 33.135,33.135 0 1 1 -66.27,0 33.135,33.135 0 1 1 66.27,0 z" />
          <path
             id="path2391"
             style="fill:#ffffff;stroke:#000000;stroke-width:4.84000015;stroke-linecap:round;stroke-linejoin:round"
             inkscape:connector-curvature="0"
             d="m 401.47,408.61 a 33.135,33.135 0 1 1 -66.27,0 33.135,33.135 0 1 1 66.27,0 z" />
          <path
             id="path2393"
             style="fill:#000000"
             inkscape:connector-curvature="0"
             d="m 311.58,412.42 a 10.283,10.283 0 0 1 -20.566,0 10.283,10.283 0 1 1 20.566,0 z" />
          <path
             id="path2395"
             style="fill:#000000"
             inkscape:connector-curvature="0"
             d="m 367.95,412.42 a 10.283,10.283 0 0 1 -20.566,0 10.283,10.283 0 1 1 20.566,0 z" />
          <path
             id="path3339"
             style="fill:#000000;fill-opacity:0.31373004"
             inkscape:connector-curvature="0"
             d="m 461.99,392.14 c 3.8743,13.279 5.9366,27.333 5.9366,41.858 2e-5,82.412 -66.872,149.28 -149.28,149.28 -56.658,0 -105.99,-31.62 -131.29,-78.158 18.178,61.952 75.464,107.24 143.27,107.24 82.412,0 149.28,-66.872 149.28,-149.28 0,-25.664 -6.5015,-49.835 -17.923,-70.936 z" />
          <path
             id="path3231"
             style="fill:#ff8080;fill-rule:evenodd;stroke:#000000;stroke-width:4.84000015;stroke-linejoin:round"
             inkscape:connector-curvature="0"
             d="m 398.42,332.06 c 3.0469,-23.613 38.086,-39.609 42.656,-35.801 4.5703,3.8086 -5.65,40.418 -25.137,49.512 -11.426,5.332 -17.52,-7.6172 -17.52,-13.711 z" />
          <path
             id="path3233"
             style="fill:#ff8080;fill-rule:evenodd;stroke:#000000;stroke-width:4.84000015;stroke-linejoin:round"
             inkscape:connector-curvature="0"
             d="m 263.15,332.06 c -3.0469,-23.613 -38.086,-39.609 -42.656,-35.801 -4.5703,3.8086 5.65,40.418 25.137,49.512 11.426,5.332 17.52,-7.6172 17.52,-13.711 z" />
          <path
             id="path3235"
             style="fill:#ffaaaa;stroke:#000000;stroke-width:4.84000015;stroke-linecap:round;stroke-linejoin:round"
             inkscape:connector-curvature="0"
             d="m 432.31,608.19 c 0,26.069 -21.158,25.137 -47.227,25.137 -26.069,0 -47.227,0.93234 -47.227,-25.137 0,-26.06934 21.158,-47.227 47.227,-47.227 26.069,0 47.227,21.158 47.227,47.227 z" />
          <path
             id="path3238"
             style="fill:#ffaaaa;stroke:#000000;stroke-width:4.84000015;stroke-linecap:round;stroke-linejoin:round"
             inkscape:connector-curvature="0"
             d="m 323.39,608.19 c 0,26.069 -21.158,25.137 -47.227,25.137 -14.496,0 -27.473,0.28827 -36.138,-3.9377 -6.9185,-3.374 -11.089,-9.6256 -11.089,-21.199 0,-26.069 21.158,-47.227 47.227,-47.227 26.069,0 47.227,21.158 47.227,47.227 z" />
          <path
             id="path3327"
             style="fill:#000000;fill-opacity:0.31373004"
             inkscape:connector-curvature="0"
             d="m 409.89,568.01 c 5.7147,7.8408 9.1128,17.505 9.1128,27.943 1e-5,15.084 -7.0605,28.506 -18.037,37.208 18.248,-0.69282 31.347,-4.4694 31.347,-24.956 0,-16.978 -8.962,-31.871 -22.423,-40.195 z" />
          <path
             id="path3332"
             style="fill:#000000;fill-opacity:0.31373004"
             inkscape:connector-curvature="0"
             d="m 300.38,568.01 c 5.7146,7.8408 9.1128,17.505 9.1128,27.943 1e-5,15.084 -7.0605,28.506 -18.037,37.208 18.248,-0.69282 31.347,-4.4694 31.347,-24.956 0,-16.978 -8.962,-31.871 -22.423,-40.195 z" />
          <path
             id="path3349"
             style="fill:#000000;fill-opacity:0.31373004"
             inkscape:connector-curvature="0"
             d="m 344.17,584.61 c -4.0082,6.939 -6.3147,15.011 -6.3147,23.595 0,21.181 13.979,24.518 33.199,25.032 -19.094,-7.9594 -28.804,-26.871 -26.885,-48.627 z" />
          <g
             id="g2469"
             transform="matrix(-1.21,0,0,1.21,726.31,-129.99)">
            <path
               id="path2471"
               style="fill:none;stroke:#000000;stroke-width:4;stroke-linecap:round"
               inkscape:connector-curvature="0"
               d="m 357.34,628.69 c -3.5026,-11.331 0.50038,-24.551 0.50038,-24.551" />
            <path
               id="path2473"
               style="fill:none;stroke:#000000;stroke-width:4;stroke-linecap:round"
               inkscape:connector-curvature="0"
               d="m 375.37,631.21 c 4.293,-18.256 -0.61329,-32.735 -0.61329,-32.735" />
            <path
               id="path2475"
               style="fill:none;stroke:#000000;stroke-width:4;stroke-linecap:round"
               inkscape:connector-curvature="0"
               d="m 393.62,629.32 c 8.8133,-13.849 1.259,-25.181 1.259,-25.181" />
          </g>
          <g
             id="g2508"
             transform="matrix(1.21,0,0,1.21,-64.181,-129.99)">
            <path
               id="path2510"
               style="fill:none;stroke:#000000;stroke-width:4;stroke-linecap:round"
               inkscape:connector-curvature="0"
               d="m 357.34,628.69 c -3.5026,-11.331 0.50038,-24.551 0.50038,-24.551" />
            <path
               id="path2512"
               style="fill:none;stroke:#000000;stroke-width:4;stroke-linecap:round"
               inkscape:connector-curvature="0"
               d="m 375.37,631.21 c 4.293,-18.256 -0.61329,-32.735 -0.61329,-32.735" />
            <path
               id="path2514"
               style="fill:none;stroke:#000000;stroke-width:4;stroke-linecap:round"
               inkscape:connector-curvature="0"
               d="m 393.62,629.32 c 8.8133,-13.849 1.259,-25.181 1.259,-25.181" />
          </g>
          <path
             id="path2387-1"
             style="fill:#ff8080;stroke:#000000;stroke-width:5.69210005;stroke-linecap:round;stroke-linejoin:round"
             inkscape:connector-curvature="0"
             d="m 369.59,481 a 38.968,38.968 0 0 1 -77.936,0 38.968,38.968 0 1 1 77.936,0 z" />
          <path
             id="path2393-7"
             style="fill:#000000"
             inkscape:connector-curvature="0"
             d="m 325.66,479.41 a 12.094,12.094 0 1 1 -24.187,0 12.094,12.094 0 1 1 24.187,0 z" />
          <path
             id="path2393-4"
             style="fill:#000000"
             inkscape:connector-curvature="0"
             d="m 359.07,478.52 a 12.094,12.094 0 0 1 -24.187,0 12.094,12.094 0 1 1 24.187,0 z" />
        </g>
      </g>
    </g>
    <g
       id="g5202"
       transform="translate(152.04,99.567)" />
  </g>
  <metadata
     id="metadata35">
    <rdf:RDF>
      <cc:Work>
        <dc:format>image/svg+xml</dc:format>
        <dc:type
           rdf:resource="http://purl.org/dc/dcmitype/StillImage" />
        <cc:license
           rdf:resource="http://creativecommons.org/publicdomain/zero/1.0/" />
        <dc:publisher>
          <cc:Agent
             rdf:about="http://openclipart.org/">
            <dc:title>Openclipart</dc:title>
          </cc:Agent>
        </dc:publisher>
        <dc:title>Pig2</dc:title>
        <dc:date>2012-01-04T15:51:52</dc:date>
        <dc:description />
        <dc:source>https://openclipart.org/detail/166836/pig2-by-mat86</dc:source>
        <dc:creator>
          <cc:Agent>
            <dc:title>Mat86</dc:title>
          </cc:Agent>
        </dc:creator>
        <dc:subject>
          <rdf:Bag>
            <rdf:li>animal</rdf:li>
            <rdf:li>cartoon</rdf:li>
            <rdf:li>pig</rdf:li>
          </rdf:Bag>
        </dc:subject>
      </cc:Work>
      <cc:License
         rdf:about="http://creativecommons.org/publicdomain/zero/1.0/">
        <cc:permits
           rdf:resource="http://creativecommons.org/ns#Reproduction" />
        <cc:permits
           rdf:resource="http://creativecommons.org/ns#Distribution" />
        <cc:permits
           rdf:resource="http://creativecommons.org/ns#DerivativeWorks" />
      </cc:License>
    </rdf:RDF>
  </metadata>
</svg>
